<svg width="700" height="1000" viewBox="0 0 700 1000" fill="none" xmlns="http://www.w3.org/2000/svg">
<rect width="700" height="1000" fill="#1E1E1E"/>
<g clip-path="url(#clip0_0_1)">
<rect x="700" y="1000" width="700" height="1000" rx="100" transform="rotate(180 700 1000)" fill="#F23030"/>
<g clip-path="url(#clip1_0_1)">
<rect x="25" y="470" width="650" height="425" rx="58" fill="#F2D64B"/>
<rect x="40" y="490" width="620" height="270" rx="40" fill="#F23030"/>
<rect x="55" y="505" width="590" height="225" rx="26" fill="#5CC8F2"/>
</g>
<g clip-path="url(#clip2_0_1)">
<rect y="225" width="700" height="190" fill="#0F0D13"/>
<path d="M0 225H210C218.284 225 225 231.716 225 240V400C225 408.284 218.284 415 210 415H0V225Z" fill="#312E38"/>
<path d="M394.297 307.516H403.672V309.078H394.297V307.516ZM391.953 307.516H393.516V320.328H391.953V307.516ZM404.453 307.516H406.016V320.328H404.453V307.516ZM394.297 319.938H403.672V321.5H394.297V319.938ZM393.516 334H391.953V321.109H393.516V334ZM404.453 321.109H406.016V334H404.453V321.109ZM415.922 307.516H417.484V320.328H415.922V307.516ZM417.484 334H415.922V321.109H417.484V334ZM418.266 332.438H427.641V334H418.266V332.438ZM442.234 307.516H451.609V309.078H442.234V307.516ZM439.891 307.516H441.453V320.328H439.891V307.516ZM452.391 307.516H453.953V320.328H452.391V307.516ZM442.234 319.938H451.609V321.5H442.234V319.938ZM441.453 334H439.891V321.109H441.453V334ZM448.094 322.359H449.656L452 331.656H450.438L448.094 322.359ZM466.203 307.516H475.578V309.078H466.203V307.516ZM463.859 307.516H465.422V320.328H463.859V307.516ZM466.203 319.938H475.578V321.5H466.203V319.938ZM465.422 334H463.859V321.109H465.422V334ZM466.203 332.438H475.578V334H466.203V332.438ZM490.172 307.516H499.547V309.078H490.172V307.516ZM487.828 307.516H489.391V320.328H487.828V307.516ZM500.328 307.516H501.891V320.328H500.328V307.516ZM490.172 319.938H499.547V321.5H490.172V319.938ZM489.391 334H487.828V321.109H489.391V334ZM500.328 321.109H501.891V334H500.328V321.109ZM514.141 307.516H523.516V309.078H514.141V307.516ZM518.047 309.859H519.609V319.156H518.047V309.859ZM524.297 307.516H525.859V320.328H524.297V307.516ZM518.047 322.359H519.609V331.656H518.047V322.359ZM524.297 321.109H525.859V334H524.297V321.109ZM514.141 332.438H523.516V334H514.141V332.438ZM537.719 309.859H539.281L541.625 319.156H540.062L537.719 309.859ZM543.969 319.156L546.312 309.859H547.875L545.531 319.156H543.969ZM542.016 322.359H543.578V331.656H542.016V322.359Z" fill="#6C9B9B"/>
</g>
</g>
<defs>
<clipPath id="clip0_0_1">
<rect width="700" height="1000" fill="white"/>
</clipPath>
<clipPath id="clip1_0_1">
<rect width="650" height="425" fill="white" transform="translate(25 470)"/>
</clipPath>
<clipPath id="clip2_0_1">
<rect width="700" height="190" fill="white" transform="translate(0 225)"/>
</clipPath>
</defs>
</svg>
